HIERARCHY
ROOT Hips
{
 OFFSET 0.000000 0.000000 0.000000
 CHANNELS 6 Xposition Yposition Zposition Yrotation Xrotation Zrotation
 JOINT Chest
 {
  OFFSET 0.000000 9.585900 0.002600
  CHANNELS 3 Yrotation Xrotation Zrotation
  JOINT Chest2
  {
   OFFSET 0.000000 9.601200 -0.005300
   CHANNELS 3 Yrotation Xrotation Zrotation
   JOINT Chest3
   {
    OFFSET 0.000000 9.561800 0.000000
    CHANNELS 3 Yrotation Xrotation Zrotation
    JOINT Chest4
    {
     OFFSET 0.000000 9.552100 0.000000
     CHANNELS 3 Yrotation Xrotation Zrotation
     JOINT Neck
     {
      OFFSET 0.000000 14.453000 0.000000
      CHANNELS 3 Yrotation Xrotation Zrotation
      JOINT Head
      {
       OFFSET 0.000000 8.936500 -0.011300
       CHANNELS 3 Yrotation Xrotation Zrotation
       End Site
       {
        OFFSET 0.000000 17.073600 -0.006000
       }
      }
     }
     JOINT RightCollar
     {
      OFFSET -2.921100 9.558500 0.000000
      CHANNELS 3 Yrotation Xrotation Zrotation
      JOINT RightShoulder
      {
       OFFSET -13.519700 0.000000 0.000000
       CHANNELS 3 Yrotation Xrotation Zrotation
       JOINT RightElbow
       {
        OFFSET 0.000000 -29.696600 0.000000
        CHANNELS 3 Yrotation Xrotation Zrotation
        JOINT RightWrist
        {
         OFFSET 0.000000 -24.004700 0.000000
         CHANNELS 3 Yrotation Xrotation Zrotation
         End Site
         {
          OFFSET 0.000000 -17.728500 0.000000
         }
        }
       }
      }
     }
     JOINT LeftCollar
     {
      OFFSET 2.921100 9.558500 0.000000
      CHANNELS 3 Yrotation Xrotation Zrotation
      JOINT LeftShoulder
      {
       OFFSET 13.519700 0.000000 0.000000
       CHANNELS 3 Yrotation Xrotation Zrotation
       JOINT LeftElbow
       {
        OFFSET 0.000000 -29.696600 0.000000
        CHANNELS 3 Yrotation Xrotation Zrotation
        JOINT LeftWrist
        {
         OFFSET 0.000000 -24.004700 0.000000
         CHANNELS 3 Yrotation Xrotation Zrotation
         End Site
         {
          OFFSET 0.000000 -17.728500 0.000000
         }
        }
       }
      }
     }
    }
   }
  }
 }
 JOINT RightHip
 {
  OFFSET -7.771700 -0.012900 -0.001300
  CHANNELS 3 Yrotation Xrotation Zrotation
  JOINT RightKnee
  {
   OFFSET 0.000000 -40.869800 0.001200
   CHANNELS 3 Yrotation Xrotation Zrotation
   JOINT RightAnkle
   {
    OFFSET 0.000000 -39.717900 0.002100
    CHANNELS 3 Yrotation Xrotation Zrotation
    JOINT RightToe
    {
     OFFSET 0.000000 -4.965400 11.033500
     CHANNELS 3 Yrotation Xrotation Zrotation
     End Site
     {
      OFFSET 0.000000 -1.423100 5.872300
     }
    }
   }
  }
 }
 JOINT LeftHip
 {
  OFFSET 7.771700 -0.012900 -0.001300
  CHANNELS 3 Yrotation Xrotation Zrotation
  JOINT LeftKnee
  {
   OFFSET 0.000000 -40.869800 0.001200
   CHANNELS 3 Yrotation Xrotation Zrotation
   JOINT LeftAnkle
   {
    OFFSET 0.000000 -39.717900 0.002100
    CHANNELS 3 Yrotation Xrotation Zrotation
    JOINT LeftToe
    {
     OFFSET 0.000000 -4.965400 11.033500
     CHANNELS 3 Yrotation Xrotation Zrotation
     End Site
     {
      OFFSET 0.000000 -1.423100 5.872300
     }
    }
   }
  }
 }
}
MOTION
Frames: 13
Frame Time: 0.008333
0.000000 85.388000 0.000000 0.000000 -5.767877 0.000000 0.000000 11.653817 0.000000 0.000000 -5.885947 0.000000 0.000000 -0.000000 0.000000 0.000000 -0.000000 0.000000 0.000000 12.528835 0.000000 0.000000 0.711642 0.000000 0.000000 -0.000000 0.000000 0.000000 0.000000 -90.000000 0.000000 -2.309062 0.000000 0.000000 2.309062 0.000000 0.000000 -0.000000 0.000000 0.000000 -0.000000 90.000000 0.000000 -2.309062 0.000000 0.000000 2.309062 0.000000 0.000000 8.520406 0.000000 0.000000 1.905762 0.000000 -0.000000 -4.658285 0.000000 0.000000 -0.000000 0.000000 0.000000 8.520406 0.000000 0.000000 1.905762 0.000000 -0.000000 -4.658285 0.000000 0.000000 -0.000000 0.000000
-189.331843 58.049056 29.152537 171.384285 -50.753559 -3.515635 5.260050 21.355566 3.303113 2.758476 12.299183 1.691818 3.492231 15.238392 2.243099 2.761696 12.302397 1.675980 -0.878025 17.162062 3.700464 -2.695452 -3.533083 7.068876 -0.313497 5.283549 0.092686 -7.379102 -10.156540 -4.892761 174.339845 -80.309699 -153.107314 13.365714 -16.397877 -23.167522 -9.905047 1.832942 -1.033363 1.273697 -9.554025 15.964185 -147.870283 -83.076807 127.824946 -20.745438 -29.365762 25.286146 3.524787 -21.899254 0.798847 -36.808088 73.249619 -37.993395 6.233976 -12.280247 8.922234 -0.004333 -0.144202 0.002047 -1.572935 -20.394544 12.460093 52.699297 79.383444 52.494359 4.207536 -16.018455 -16.198835 0.090822 0.170554 0.057226
-189.332976 58.051940 29.156091 171.385208 -50.798371 -3.522971 5.253339 21.346749 3.318092 2.747789 12.299673 1.693945 3.490502 15.238805 2.253458 2.740443 12.273143 1.692805 -0.763864 17.335311 3.674427 -2.597941 -3.391595 7.006031 -0.276307 5.324918 0.069851 -7.404029 -10.126871 -4.807679 175.612429 -81.220520 -154.398132 13.289998 -15.702605 -22.743841 -9.876058 1.897551 -1.089781 1.242136 -9.597062 15.901546 -142.528107 -83.628043 122.674626 -20.713771 -28.983623 24.850122 3.528251 -21.851238 0.809925 -36.788724 73.238352 -37.968006 6.220527 -12.272093 8.924487 -0.001933 -0.145494 0.000181 -1.576575 -20.348597 12.470932 52.682617 79.380891 52.468342 4.205056 -16.013645 -16.196082 0.091526 0.163115 0.053488
-189.333985 58.056517 29.159141 171.388589 -50.859837 -3.533454 5.252633 21.367437 3.337199 2.737148 12.286416 1.700816 3.490447 15.241825 2.262331 2.735194 12.298285 1.685384 -0.676426 17.413799 3.666862 -2.476264 -3.242445 6.935235 -0.253208 5.318308 0.068625 -7.438128 -10.095505 -4.715048 176.914169 -82.036180 -155.731222 13.231856 -15.041250 -22.386238 -9.866719 1.909246 -1.108646 1.201270 -9.708079 15.758917 -135.655069 -84.081258 115.980067 -20.688882 -28.640149 24.479761 3.529205 -21.782755 0.820008 -36.746709 73.220502 -37.920278 6.232496 -12.261983 8.923921 0.005694 -0.151081 -0.000361 -1.584627 -20.284082 12.483404 52.658398 79.371580 52.429085 4.202561 -16.000507 -16.190822 0.083723 0.157152 0.051243
-189.337525 58.057037 29.165537 171.398191 -50.893012 -3.537266 5.246302 21.387780 3.338480 2.730064 12.247555 1.713255 3.489263 15.246099 2.272116 2.725735 12.297488 1.690867 -0.602306 17.492486 3.636460 -2.335007 -3.106663 6.853014 -0.235537 5.345415 0.046991 -7.473342 -10.065854 -4.615621 178.070420 -82.741748 -156.941937 13.194347 -14.417114 -22.081386 -9.857000 1.927227 -1.145617 1.183548 -9.794345 15.627094 -128.639865 -84.416217 109.124309 -20.669146 -28.336110 24.178548 3.527488 -21.747904 0.816277 -36.731223 73.217202 -37.902549 6.228120 -12.263232 8.926165 0.009588 -0.147076 -0.001566 -1.593046 -20.252378 12.482594 52.650465 79.367696 52.409627 4.200357 -15.997813 -16.187577 0.082905 0.157921 0.050955
-189.339644 58.059275 29.171141 171.408877 -50.940061 -3.549833 5.238967 21.384125 3.356702 2.726736 12.248586 1.720155 3.488594 15.252313 2.281918 2.719308 12.293617 1.697018 -0.527151 17.559420 3.600421 -2.186175 -2.999275 6.759306 -0.231238 5.378681 0.023629 -7.501630 -10.035821 -4.514932 178.880654 -83.324507 -157.834864 13.174927 -13.838077 -21.812606 -9.832950 1.963390 -1.169964 1.184487 -9.867390 15.519020 -122.232227 -84.657004 102.853194 -20.656063 -28.077853 23.940537 3.523157 -21.698513 0.820629 -36.719278 73.209071 -37.885514 6.231469 -12.256635 8.925461 0.007908 -0.148620 -0.001842 -1.611766 -20.208445 12.494927 52.660273 79.371267 52.403712 4.197359 -15.989212 -16.185531 0.082532 0.151320 0.052022
-189.342730 58.061857 29.176383 171.421380 -50.989270 -3.557835 5.232735 21.344558 3.382343 2.718834 12.292353 1.719660 3.488149 15.261693 2.288749 2.721091 12.253023 1.735180 -0.464805 17.646519 3.527455 -2.028906 -2.923919 6.655139 -0.249714 5.445650 -0.028125 -7.521519 -9.999926 -4.416337 179.153119 -83.772270 -158.215430 13.172660 -13.318988 -21.579231 -9.820462 2.049643 -1.221263 1.222066 -9.957683 15.413253 -116.484881 -84.819810 97.206145 -20.653052 -27.858530 23.756544 3.522458 -21.643974 0.812749 -36.706584 73.198915 -37.862211 6.244974 -12.257186 8.925402 0.009305 -0.150386 -0.002147 -1.620961 -20.160147 12.495883 52.646445 79.370798 52.381638 4.193923 -15.983755 -16.183072 0.085268 0.148350 0.052828
-189.344263 58.064463 29.182038 171.430761 -51.035918 -3.573052 5.234530 21.370433 3.399675 2.725841 12.240948 1.746266 3.477465 15.310856 2.281418 2.727360 12.253646 1.746385 -0.383745 17.671586 3.480171 -1.862660 -2.884482 6.540219 -0.275508 5.460779 -0.044496 -7.534208 -9.953585 -4.325122 178.784946 -84.077587 -157.974570 13.183033 -12.874539 -21.386531 -9.812303 2.095741 -1.227604 1.295843 -10.042162 15.312308 -111.792183 -84.928697 92.582813 -20.657028 -27.657718 23.605836 3.521725 -21.588447 0.810646 -36.669844 73.180186 -37.807773 6.263671 -12.252889 8.923463 -0.001663 -0.146028 -0.006784 -1.629850 -20.113651 12.506489 52.624954 79.369696 52.353751 4.195458 -15.979714 -16.181406 0.083932 0.140734 0.047526
-189.346925 58.066528 29.187857 171.435125 -51.075641 -3.577991 5.236744 21.391263 3.409287 2.735023 12.237279 1.754239 3.466532 15.326368 2.279442 2.746270 12.251260 1.760453 -0.297071 17.676091 3.425861 -1.684849 -2.883671 6.411173 -0.304974 5.466387 -0.054947 -7.553212 -9.897385 -4.244040 177.832148 -84.244800 -157.163238 13.206418 -12.517416 -21.238763 -9.807158 2.137306 -1.223514 1.388574 -10.114493 15.216428 -108.332993 -85.005942 89.176591 -20.657731 -27.472446 23.471260 3.521965 -21.545329 0.810204 -36.645203 73.169833 -37.775551 6.259284 -12.248183 8.929535 0.004238 -0.145374 -0.011388 -1.633078 -20.074251 12.511928 52.604467 79.365517 52.324289 4.187755 -15.977679 -16.182251 0.083709 0.140775 0.051911
-189.349514 58.071679 29.191170 171.454833 -51.133533 -3.593446 5.239857 21.421137 3.425786 2.737130 12.253303 1.754282 3.471622 15.323248 2.295101 2.748522 12.269369 1.758044 -0.202515 17.659794 3.362109 -1.490490 -2.921924 6.262947 -0.337111 5.459834 -0.054738 -7.583461 -9.830179 -4.182265 176.499996 -84.283066 -155.973149 13.250114 -12.254767 -21.140216 -9.800298 2.175175 -1.207438 1.492563 -10.171034 15.126382 -106.113690 -85.068555 87.002869 -20.642378 -27.317430 23.346701 3.519792 -21.479292 0.802807 -36.602698 73.163291 -37.720147 6.267395 -12.240769 8.928908 0.003421 -0.150258 -0.012836 -1.642527 -20.015192 12.513268 52.594144 79.354023 52.306918 4.177515 -15.965430 -16.178181 0.081109 0.133537 0.050174
-189.353890 58.071992 29.198031 171.470700 -51.148934 -3.599264 5.234773 21.418460 3.421327 2.743143 12.267924 1.758923 3.501388 15.333600 2.305077 2.720934 12.265605 1.761818 -0.088493 17.634356 3.281712 -1.275154 -2.999071 6.090535 -0.369917 5.458376 -0.055697 -7.623278 -9.758218 -4.133815 175.026985 -84.201907 -154.630236 13.308993 -12.092963 -21.079674 -9.782792 2.219742 -1.185328 1.607566 -10.206185 15.045282 -105.131576 -85.129669 86.064044 -20.606816 -27.209402 23.240201 3.521287 -21.460107 0.788359 -36.579503 73.160609 -37.686879 6.270958 -12.242527 8.929735 0.001664 -0.145348 -0.014739 -1.650874 -20.000608 12.508972 52.555819 79.336443 52.260635 4.164553 -15.951531 -16.172542 0.083600 0.133703 0.049768
-189.357848 58.073080 29.204283 171.488619 -51.163364 -3.609936 5.239809 21.423857 3.425021 2.732327 12.276331 1.760304 3.519531 15.354161 2.300702 2.713649 12.251209 1.772643 0.033240 17.599552 3.181363 -1.036934 -3.115364 5.891949 -0.457686 5.510748 -0.090626 -7.639494 -9.731410 -4.064044 173.601952 -84.019523 -153.313939 13.373127 -12.035672 -21.045326 -9.774823 2.253087 -1.166940 1.738501 -10.202410 14.981498 -105.369601 -85.194576 86.342204 -20.564856 -27.157489 23.184295 3.516832 -21.440902 0.782033 -36.564354 73.155555 -37.665222 6.269593 -12.245063 8.932469 0.012209 -0.142695 -0.013894 -1.664900 -19.988753 12.508315 52.543055 79.330716 52.237147 4.161276 -15.941890 -16.164711 0.082072 0.132566 0.048111
-189.362375 58.074335 29.210109 171.513703 -51.171594 -3.624271 5.241549 21.432950 3.421685 2.736841 12.284661 1.761486 3.518492 15.365549 2.302930 2.724571 12.258801 1.771744 0.154615 17.534005 3.080318 -0.775974 -3.266955 5.668106 -0.550916 5.551011 -0.114357 -7.685731 -9.711142 -4.003267 172.322574 -83.755463 -152.113438 13.433568 -12.072857 -21.038463 -9.790960 2.239248 -1.141077 1.889896 -10.149140 14.938810 -106.738528 -85.260163 87.740826 -20.529802 -27.157730 23.203032 3.509864 -21.426452 0.772582 -36.521778 73.149296 -37.616696 6.259314 -12.238605 8.934542 0.011729 -0.143390 -0.011612 -1.685194 -19.984849 12.503546 52.550762 79.323490 52.231592 4.160452 -15.930311 -16.153242 0.074548 0.130820 0.043495
